<?xml version="1.0" encoding="utf-8"?>
<!-- Generator: Adobe Illustrator 21.1.0, SVG Export Plug-In . SVG Version: 6.00 Build 0)  -->
<svg version="1.1" xmlns="http://www.w3.org/2000/svg" xmlns:xlink="http://www.w3.org/1999/xlink" x="0px" y="0px"
	 viewBox="0 0 1020.7 1020.7" style="enable-background:new 0 0 1020.7 1020.7;" xml:space="preserve">
<style type="text/css">
	.st0{fill:none;}
	.st1{fill:#fff;}
</style>
<g id="Layer_1">
	<g>
		<circle class="st0" cx="510.3" cy="510.3" r="510.3"/>
	</g>
</g>
<g id="Layer_2">
	<path class="st1" d="M756.6,649.9L756.6,649.9c-41.7,6.1-62.6-28.8-48.9-58.9l-0.8,0.9c11.4-25,17.8-52.8,17.8-81.5
		c0-28.7-6.4-56.5-17.8-81.5l1.3,1.4c-10.1-24.4,6.8-65.4,48.6-59.3v0c22.4,3.3,39.8-17.8,39.8-46.8c0-29-17.4-57.1-39.8-62.9
		c-23.5-6.1-43.4,14.4-43.4,46.1v0l0,0c0,55.2-30.3,77.4-54.8,56.7l0.7,1.1c-21.6-18.4-47.5-31.3-76.4-35.9
		c-30.8-4.9-61-0.2-87.9,12.2c-28.2,10.2-81.1-24.1-81.1-94.6l0,0c0-41.1-35.2-83.5-81.2-95.5c-49.3-12.8-92,13.9-92,60.4
		c0,46.6,42.7,90.5,92,97.7h0c73.3,10.6,107.6,56.8,93.9,90.8c-20.3,30-32.7,67.6-32.7,110.3c0,40.6,11.3,76.5,29.8,105.8
		c12.8,29.2-15.5,84.1-91.2,95l0,0c-49.4,7.1-92,51.1-92.1,97.6c0,46.6,42.7,73.2,92,60.5c46.1-11.9,81.3-54.4,81.3-95.5l0,0
		c0-68.5,43.7-107.5,77.5-96.3c27.9,13.7,59.5,19.3,91.7,14.1c28.8-4.6,54.5-17.4,76-35.6l-0.8,1.3c20.1-15.7,55.1,1,55.2,56.1l0,0
		c0,31.7,19.9,52.2,43.5,46.1c22.4-5.8,39.8-33.9,39.8-62.9C796.4,667.7,778.9,646.6,756.6,649.9z M581.4,623.7
		c-59.2,6.7-112.6-43.7-112.6-113.2c0-69.5,53.4-119.9,112.6-113.2c53,6,92,56.4,92,113.2C673.4,567.3,634.4,617.7,581.4,623.7z"/>
</g>
</svg>
